<svg id="logo-steko" xmlns="http://www.w3.org/2000/svg" width="228.848" height="28.76" viewBox="0 0 228.848 28.76">
  <path id="Path_20" data-name="Path 20" d="M904.008,430.166s.493-5.8-2.025-8.929-5.49-3.777-9.643-3.777c-4.66,0-10.383,2.972-11.019,8.358-.74,5.84,1.479,11.68,7.787,12.771a19.6,19.6,0,0,0,3.712.234V434.28s-3.5.26-3.893-4.114Zm-7.631-3.816h-7.515s0-4.309,3.764-4.309S896.376,426.35,896.376,426.35Z" transform="translate(-720.273 -410.521)" fill="#11a87a"/>
  <path id="Path_22" data-name="Path 22" d="M859.815,433.572H852.69s.493,6.943,10.383,6.943,10.188-5.464,10.188-7.164-1.441-6.632-8.566-6.632c-5.321,0-4.867-2.154-4.867-2.154s.233-1.3,2.414-1.3,3.167,1.3,3.167,2.038h11.577v8.747s-.415,6.489,5.191,6.489,6.671-.532,6.671-.532l-.493-5.321s-3.894,1.921-3.894-1.3V425.4h4.192v-6.165h-4.114V411.82l-7.58,4.036V419.2H862.683s-9.617-.376-9.617,6.23c0,6.113,7.787,6.489,9.358,6.71,2.154.195,3.816.766,3.816,2.258,0,1.882-2.985,1.8-2.985,1.8s-3.439,0-3.439-2.6Z" transform="translate(-728.701 -411.781)" fill="#fff"/>
  <path id="Path_23" data-name="Path 23" d="M37.669,2.54V17.011l6.295-7.333H53.4l-7.748,7.709L53.4,30.664H44.755L40.55,22.449l-2.881,2.868v5.347H29.83V6.641l7.839-4.1Z" transform="translate(8.871 -2.358)" fill="#fff"/>
  <path id="Path_24" data-name="Path 24" d="M769.993,424.91a2.908,2.908,0,0,1-1.739.428h-3.893V422.2h4.166q2.025,0,2.025,1.648a1.3,1.3,0,0,1-.571,1.077m-1.635,8.825h-4v-3.894h4.075a3.673,3.673,0,0,1,1.947.428,1.532,1.532,0,0,1,.675,1.4q0,1.96-2.7,1.96m7.2-14.9a14.12,14.12,0,0,0-6.918-1.3H756.95V438.42h11.577q9.9,0,9.9-6a4.608,4.608,0,0,0-1.22-3.309,5.517,5.517,0,0,0-3.517-1.544v-.143a4.983,4.983,0,0,0,2.985-1.518,4.362,4.362,0,0,0,1.09-3.037,4.413,4.413,0,0,0-2.284-4.088" transform="translate(-756.95 -410.526)" fill="#fff"/>
  <path id="Path_25" data-name="Path 25" d="M27.2,8.05H19.87V29.023H27.2V8.05Z" transform="translate(5.983 -1.129)" fill="#11a87a"/>
  <path id="Path_26" data-name="Path 26" d="M50.23,8.05V29.023h7.333V20.989h5.814v8.034h7.346V8.05H63.377V15.6H57.563V8.05Z" transform="translate(14.895 -1.129)" fill="#fff"/>
  <path id="Path_27" data-name="Path 27" d="M832.683,431.882q0-2.453,3.556-2.6l1.661-.078v1.609a2.7,2.7,0,0,1-.935,2.129,3.284,3.284,0,0,1-2.245.818q-2.051,0-2.05-1.895m12.407,6.554V424.9a6.983,6.983,0,0,0-2.206-5.5,9.085,9.085,0,0,0-6.23-1.973,20.3,20.3,0,0,0-9.228,1.856l2.09,4.7a15.394,15.394,0,0,1,5.814-1.531,2.258,2.258,0,0,1,2.6,2.6v.286l-3.491.1a12.863,12.863,0,0,0-6.736,1.817,5.568,5.568,0,0,0-2.323,4.906,6.763,6.763,0,0,0,1.7,4.919,6.19,6.19,0,0,0,4.646,1.752,9.941,9.941,0,0,0,3.893-.662,8.2,8.2,0,0,0,2.972-2.44h.143l1.389,2.726Z" transform="translate(-736.754 -410.535)" fill="#fff"/>
  <path id="Path_28" data-name="Path 28" d="M780.491,417.9q3.738,0,3.738-3.037a2.868,2.868,0,0,0-.9-2.3,5.619,5.619,0,0,0-5.672,0,2.894,2.894,0,0,0-.87,2.31q0,3.037,3.7,3.037" transform="translate(-751.043 -411.788)" fill="#11a87a"/>
  <path id="Path_29" data-name="Path 29" d="M938.788,427.984c0-6.242-4.478-10.564-11.187-10.564s-11.33,3.894-11.33,10.811c0,6.684,5.048,10.6,11.109,10.6s11.408-3.024,11.408-10.863Zm-7.567.143c0,3.66-1.843,5.464-3.686,5.464s-3.829-1.791-3.829-5.451c0-3.141,1.622-5.373,3.764-5.373s3.724,2.167,3.724,5.373Z" transform="translate(-709.939 -410.532)" fill="#11a87a"/>
  <path id="Path_30" data-name="Path 30" d="M158.353,17.416l7.5-7.657h-9.2L150.5,16.793V2.4L142.74,6.631V30.706h7.683v-5.4L153.33,22.4l4.075,8.306h8.449l-7.5-13.29Z" transform="translate(42.137 -2.4)" fill="#11a87a"/>
</svg>
